<?xml version="1.0" encoding="utf-8"?>
<!-- Generator: Adobe Illustrator 16.0.4, SVG Export Plug-In . SVG Version: 6.00 Build 0)  -->
<!DOCTYPE svg PUBLIC "-//W3C//DTD SVG 1.1//EN" "http://www.w3.org/Graphics/SVG/1.1/DTD/svg11.dtd">
<svg version="1.1" id="Layer_1" xmlns="http://www.w3.org/2000/svg" xmlns:xlink="http://www.w3.org/1999/xlink" x="0px" y="0px"
	 width="600px" height="90.542px" viewBox="-194.323 -25.271 600 90.542" enable-background="new -194.323 -25.271 600 90.542"
	 xml:space="preserve">
<g>
	<g>
		<path fill="#FFFFFF" d="M-159.703,15.935v9.555h-23.366v10.53h22.216v9.559h-22.216v19.111h-11.254V15.931L-159.703,15.935
			L-159.703,15.935z"/>
		<path fill="#FFFFFF" d="M-140.124,52.104c1.878,2.255,4.396,3.384,7.572,3.384s5.688-1.129,7.54-3.384
			c1.85-2.251,2.774-5.332,2.774-9.242V15.936h11.258v27.281c0,7.066-2.022,12.491-6.061,16.282
			c-4.039,3.787-9.212,5.687-15.508,5.687c-6.3,0-11.479-1.906-15.543-5.72c-4.059-3.82-6.092-9.235-6.092-16.26V15.936h11.246
			v26.926C-142.936,46.764-141.999,49.849-140.124,52.104z"/>
		<path fill="#FFFFFF" d="M-24.814,55.085c5.526,0,10.045-2.113,13.55-6.343l7.214,7.183c-5.723,6.229-12.464,9.347-20.23,9.347
			s-14.156-2.373-19.18-7.114C-48.491,53.417-51,47.432-51,40.199c0-7.226,2.559-13.254,7.685-18.097
			c5.12-4.834,11.378-7.25,18.779-7.25c8.268,0,15.195,3.043,20.768,9.132l-6.993,7.673c-3.563-4.278-7.98-6.415-13.262-6.415
			c-4.236,0-7.854,1.33-10.857,4.011c-3.003,2.674-4.508,6.275-4.508,10.808c0,4.531,1.423,8.172,4.254,10.911
			C-32.29,53.713-28.855,55.085-24.814,55.085z"/>
		<path fill="#FFFFFF" d="M24.721,25.384v39.321H13.472V25.384H-0.803v-9.419H39v9.419H24.721z"/>
		<path fill="#FFFFFF" d="M349.055,25.384v39.321h-11.254V25.384h-14.277v-9.419h39.806v9.419H349.055z"/>
		<path fill="#FFFFFF" d="M48.235,15.968h11.25v48.74h-11.25V15.968z"/>
		<path fill="#FFFFFF" d="M260.896,15.968h11.249v48.74h-11.249V15.968z"/>
		<path fill="#FFFFFF" d="M112.839,57.982c-5.098,4.816-11.371,7.213-18.818,7.213c-7.452,0-13.725-2.397-18.817-7.213
			c-5.103-4.818-7.647-10.796-7.647-17.963c0-7.154,2.545-13.14,7.647-17.955c5.093-4.811,11.369-7.214,18.817-7.214
			c7.447,0,13.721,2.404,18.818,7.214c5.098,4.816,7.644,10.795,7.644,17.955C120.483,47.187,117.939,53.172,112.839,57.982z
			 M109.017,40.054c0-4.344-1.444-8.049-4.334-11.116c-2.881-3.071-6.43-4.603-10.629-4.603c-4.207,0-7.756,1.532-10.637,4.603
			c-2.89,3.067-4.329,6.78-4.329,11.116c0,4.352,1.443,8.043,4.329,11.089c2.881,3.043,6.43,4.566,10.637,4.566
			c4.203,0,7.748-1.523,10.629-4.566C107.58,48.104,109.017,44.409,109.017,40.054z"/>
		<path fill="#FFFFFF" d="M161.975,15.968h11.254v48.74h-11.254l-24.008-30.543v30.543h-11.249v-48.74h10.529l24.73,31.382V15.968
			H161.975z"/>
		<path fill="#FFFFFF" d="M-67.891,15.968h11.241v48.74h-11.241l-24.012-30.543v30.543h-11.246v-48.74h10.525L-67.89,47.35
			L-67.891,15.968L-67.891,15.968z"/>
		<polygon fill="#FFFFFF" points="195.499,17.125 189.566,30.432 195.844,44.627 183.238,44.613 178.972,54.179 200.1,54.179 
			204.789,64.708 216.757,64.708 		"/>
		<path fill="#FFFFFF" d="M221.182,64.708v-48.74h11.251v39.053h21.482v9.691h-32.733V64.708z"/>
		<path fill="#FFFFFF" d="M316.77,40.581c-2.643-2.278-6.357-3.985-11.137-5.121c-4.786-1.14-7.84-2.129-9.156-2.967
			c-1.324-0.84-1.987-1.965-1.987-3.388c0-1.415,0.538-2.548,1.62-3.412c1.081-0.862,2.559-1.296,4.434-1.296
			c4.651,0,9.149,1.603,13.518,4.785l4.202-9.071c-2.144-1.495-4.56-2.698-7.262-3.591c-3.365-1.116-6.73-1.67-10.098-1.67
			c-5.142,0-9.433,1.25-12.874,3.759c-3.437,2.512-5.151,6.079-5.151,10.702c0,4.631,1.359,8.024,4.072,10.182
			c2.717,2.164,7.003,3.917,12.876,5.265c3.699,0.881,6.175,1.76,7.422,2.616c1.25,0.859,1.875,2.024,1.875,3.483
			c0,1.47-0.584,2.631-1.76,3.482c-1.179,0.868-2.804,1.29-4.871,1.29c-4.615,0-9.636-2.294-15.065-6.894l-0.352,0.407l-4.287,9.26
			c5.866,4.56,12.356,6.853,19.492,6.853c5.529,0,9.989-1.362,13.375-4.078c3.391-2.721,5.082-6.265,5.082-10.637
			C320.735,46.183,319.413,42.86,316.77,40.581z"/>
		<path fill="#FFFFFF" d="M401.704,40.581c-2.644-2.278-6.355-3.985-11.142-5.121c-4.784-1.14-7.838-2.129-9.157-2.967
			c-1.318-0.84-1.984-1.965-1.984-3.388c0-1.415,0.541-2.548,1.62-3.412c1.081-0.862,2.562-1.296,4.434-1.296
			c4.646,0,9.154,1.603,13.513,4.785l4.207-9.071c-2.144-1.495-4.557-2.698-7.264-3.591c-3.363-1.116-6.73-1.67-10.094-1.67
			c-5.141,0-9.432,1.25-12.874,3.759c-3.438,2.512-5.151,6.079-5.151,10.702c0,4.631,1.357,8.024,4.075,10.182
			c2.712,2.164,7.001,3.917,12.871,5.265c3.699,0.881,6.172,1.76,7.422,2.616c1.256,0.859,1.881,2.024,1.881,3.483
			c0,1.47-0.59,2.631-1.764,3.482c-1.181,0.868-2.806,1.29-4.867,1.29c-4.621,0-9.64-2.294-15.071-6.894l-0.347,0.407l-4.292,9.26
			c5.863,4.56,12.359,6.853,19.49,6.853c5.528,0,9.988-1.362,13.382-4.078c3.386-2.721,5.085-6.265,5.085-10.637
			C405.669,46.183,404.348,42.86,401.704,40.581z"/>
	</g>
	<g>
		<path fill="#FFFFFF" d="M-179.195-19.691V3.62h-6.67v-23.312h-8.458v-5.575h23.589v5.575H-179.195z"/>
		<path fill="#FFFFFF" d="M-143.166-25.27h6.661V3.622h-6.661V-7.746h-11.886V3.622h-6.665V-25.27h6.665V-13.2h11.886V-25.27z"/>
		<path fill="#FFFFFF" d="M-104.131-25.27v5.743h-14.873v5.952h13.373v5.497h-13.373v5.989h15.343V3.62h-22.011v-28.891
			L-104.131-25.27L-104.131-25.27z"/>
	</g>
</g>
</svg>
