<?xml version="1.0" encoding="utf-8"?>
<!-- Generator: Adobe Illustrator 16.0.4, SVG Export Plug-In . SVG Version: 6.00 Build 0)  -->
<!DOCTYPE svg PUBLIC "-//W3C//DTD SVG 1.1//EN" "http://www.w3.org/Graphics/SVG/1.1/DTD/svg11.dtd">
<svg version="1.1" id="Layer_1" xmlns="http://www.w3.org/2000/svg" xmlns:xlink="http://www.w3.org/1999/xlink" x="0px" y="0px"
	 width="211.354px" height="40px" viewBox="0 0 211.354 40" enable-background="new 0 0 211.354 40" xml:space="preserve">
<g>
	<path fill="#FFB921" d="M19.999,0c-11.045,0-20,8.955-20,20c0,11.046,8.955,20,20,20c11.046,0,20-8.954,20-20
		C39.999,8.955,31.045,0,19.999,0z M13.902,17.713l-7.059,1.919v-5.724l7.059-1.919V17.713z M29.866,13.359L29.866,13.359
		l-9.148,2.488v4.182l9.147-2.486v5.725l-9.147,2.486v6.753l-5.522,1.502v-6.753v-5.724V17.35v-5.402v-0.32l14.671-3.988V13.359z"/>
	<polygon fill="#FFB921" points="47.859,32.449 50.926,32.449 50.926,27.241 56.979,27.241 56.979,24.637 50.926,24.637 
		50.926,21.768 57.293,21.768 57.293,19.164 47.859,19.163 	"/>
	<path fill="#FFB921" d="M67.502,26.501c0,1.065-0.252,1.905-0.756,2.519c-0.505,0.614-1.189,0.922-2.055,0.922
		s-1.552-0.308-2.063-0.922c-0.511-0.615-0.767-1.455-0.767-2.519v-7.337h-3.064v7.432c0,1.913,0.554,3.389,1.66,4.43
		c1.107,1.039,2.519,1.559,4.235,1.559c1.716,0,3.125-0.518,4.226-1.55c1.101-1.033,1.651-2.511,1.651-4.437v-7.434h-3.067V26.501z"
		/>
	<path fill="#FFB921" d="M94.264,21.7c1.439,0,2.644,0.582,3.614,1.748l1.905-2.091c-1.519-1.659-3.406-2.488-5.659-2.488
		c-2.017,0-3.722,0.658-5.117,1.977c-1.396,1.318-2.094,2.961-2.094,4.93c0,1.971,0.684,3.602,2.054,4.894
		c1.369,1.292,3.11,1.938,5.227,1.938s3.953-0.85,5.513-2.547l-1.966-1.957c-0.955,1.152-2.187,1.729-3.692,1.729
		c-1.102,0-2.037-0.374-2.812-1.121c-0.771-0.746-1.159-1.738-1.159-2.973c0-1.235,0.41-2.217,1.229-2.945
		C92.125,22.062,93.11,21.7,94.264,21.7z"/>
	<polygon fill="#FFB921" points="100.592,21.738 104.481,21.738 104.481,32.453 107.547,32.453 107.547,21.738 111.437,21.738 
		111.437,19.172 100.592,19.172 	"/>
	<polygon fill="#FFB921" points="188.968,21.738 192.858,21.738 192.858,32.453 195.925,32.453 195.925,21.738 199.814,21.738 
		199.814,19.172 188.968,19.172 	"/>
	<rect x="113.954" y="19.173" fill="#FFB921" width="3.065" height="13.281"/>
	<rect x="171.902" y="19.173" fill="#FFB921" width="3.065" height="13.281"/>
	<path fill="#FFB921" d="M126.43,18.868c-2.03,0-3.74,0.655-5.128,1.966c-1.391,1.312-2.084,2.943-2.084,4.893
		c0,1.953,0.693,3.582,2.084,4.895c1.388,1.312,3.097,1.966,5.128,1.966c2.029,0,3.738-0.653,5.128-1.966
		c1.389-1.311,2.082-2.941,2.082-4.895c0-1.951-0.693-3.58-2.082-4.893C130.169,19.523,128.46,18.868,126.43,18.868z
		 M129.336,28.758c-0.785,0.829-1.751,1.244-2.896,1.244c-1.146,0-2.113-0.415-2.898-1.244c-0.786-0.83-1.18-1.836-1.18-3.021
		c0-1.182,0.394-2.193,1.18-3.029c0.785-0.837,1.752-1.254,2.898-1.254c1.145,0,2.111,0.417,2.896,1.254
		c0.787,0.836,1.181,1.846,1.181,3.029C130.516,26.923,130.125,27.93,129.336,28.758z"/>
	<polygon fill="#FFB921" points="144.947,27.725 138.209,19.173 135.34,19.173 135.34,32.454 138.405,32.454 138.405,24.132 
		144.947,32.454 148.013,32.454 148.013,19.173 144.947,19.173 	"/>
	<polygon fill="#FFB921" points="82.31,27.725 75.571,19.173 72.703,19.173 72.703,32.454 75.767,32.454 75.767,24.132 
		82.31,32.454 85.374,32.454 85.374,19.173 82.31,19.173 	"/>
	<polygon fill="#FFB921" points="152.465,23.114 154.177,26.982 150.741,26.979 149.579,29.585 155.336,29.585 156.613,32.454 
		159.875,32.454 154.082,19.488 	"/>
	<polygon fill="#FFB921" points="164.146,19.173 161.08,19.173 161.08,32.454 161.08,32.455 170,32.455 170,29.814 164.146,29.814 	
		"/>
	<path fill="#FFB921" d="M184.093,24.484c-1.304-0.311-2.136-0.58-2.495-0.809c-0.36-0.229-0.541-0.535-0.541-0.923
		c0-0.386,0.146-0.694,0.441-0.93s0.697-0.353,1.208-0.353c1.268,0,2.493,0.436,3.684,1.303l1.145-2.472
		c-0.584-0.407-1.242-0.735-1.979-0.979c-0.917-0.304-1.834-0.455-2.751-0.455c-1.401,0-2.57,0.341-3.508,1.024
		c-0.938,0.685-1.404,1.656-1.404,2.916c0,1.262,0.37,2.187,1.109,2.774c0.74,0.59,1.908,1.067,3.509,1.435
		c1.008,0.24,1.683,0.479,2.022,0.713c0.341,0.234,0.511,0.552,0.511,0.949c0,0.4-0.159,0.717-0.479,0.949
		c-0.321,0.236-0.765,0.352-1.327,0.352c-1.258,0-2.626-0.625-4.105-1.879l-0.096,0.111l-1.168,2.523
		c1.599,1.242,3.367,1.867,5.312,1.867c1.507,0,2.722-0.371,3.645-1.111c0.924-0.741,1.385-1.707,1.385-2.898
		c-0.001-1.188-0.361-2.093-1.081-2.714C186.407,25.259,185.395,24.794,184.093,24.484z"/>
	<path fill="#FFB921" d="M210.271,25.88c-0.721-0.621-1.732-1.086-3.036-1.396c-1.304-0.311-2.136-0.58-2.495-0.809
		s-0.541-0.535-0.541-0.923c0-0.386,0.147-0.694,0.441-0.93c0.295-0.235,0.698-0.353,1.209-0.353c1.266,0,2.494,0.436,3.682,1.303
		l1.146-2.472c-0.584-0.407-1.242-0.735-1.979-0.979c-0.916-0.304-1.834-0.455-2.75-0.455c-1.4,0-2.57,0.341-3.508,1.024
		c-0.937,0.685-1.404,1.656-1.404,2.916c0,1.262,0.37,2.187,1.11,2.774c0.739,0.59,1.908,1.067,3.508,1.435
		c1.008,0.24,1.682,0.479,2.022,0.713c0.342,0.234,0.512,0.552,0.512,0.949c0,0.4-0.16,0.717-0.48,0.949
		c-0.321,0.236-0.765,0.352-1.326,0.352c-1.259,0-2.626-0.625-4.106-1.879l-0.095,0.111l-1.169,2.523
		c1.598,1.242,3.367,1.867,5.311,1.867c1.507,0,2.722-0.371,3.646-1.111c0.923-0.741,1.386-1.707,1.386-2.898
		C211.351,27.406,210.991,26.501,210.271,25.88z"/>
	<polygon fill="#FFB921" points="50.164,15.809 51.981,15.809 51.981,9.456 54.287,9.456 54.287,7.937 47.859,7.937 47.859,9.456 
		50.164,9.456 	"/>
	<polygon fill="#FFB921" points="61.799,15.809 63.614,15.809 63.614,7.936 61.799,7.936 61.799,11.225 58.56,11.225 58.56,7.936 
		56.744,7.936 56.744,15.809 58.56,15.809 58.56,12.711 61.799,12.711 	"/>
	<polygon fill="#FFB921" points="68.383,12.621 72.027,12.621 72.027,11.123 68.383,11.123 68.383,9.501 72.435,9.501 72.435,7.936 
		66.566,7.936 66.566,15.809 72.563,15.809 72.563,14.253 68.383,14.253 	"/>
</g>
</svg>
