<?xml version="1.0" encoding="utf-8"?>
<!-- Generator: Adobe Illustrator 16.0.4, SVG Export Plug-In . SVG Version: 6.00 Build 0)  -->
<!DOCTYPE svg PUBLIC "-//W3C//DTD SVG 1.1//EN" "http://www.w3.org/Graphics/SVG/1.1/DTD/svg11.dtd">
<svg version="1.1" id="Layer_1" xmlns="http://www.w3.org/2000/svg" xmlns:xlink="http://www.w3.org/1999/xlink" x="0px" y="0px"
	 width="211.353px" height="40px" viewBox="52.838 10 211.353 40" enable-background="new 52.838 10 211.353 40"
	 xml:space="preserve">
<g>
	<g>
		<path fill="#EFC000" d="M72.839,10c-11.045,0-20,8.955-20,20c0,11.046,8.955,20,20,20c11.046,0,20-8.954,20-20
			C92.839,18.955,83.885,10,72.839,10z M66.742,27.713l-7.059,1.919v-5.724l7.059-1.919V27.713z M82.705,23.36l-9.148,2.487v4.183
			l9.148-2.487v5.724l-9.148,2.487v6.753l-5.522,1.502v-6.753v-5.724V27.35v-5.403v-0.32l14.671-3.988V23.36z"/>
	</g>
	<g>
		<g>
			<path d="M110.133,29.164v2.604h-6.368v2.869h6.054v2.604h-6.054v5.208h-3.066V29.163L110.133,29.164L110.133,29.164z"/>
			<path d="M115.468,39.02c0.511,0.614,1.198,0.921,2.063,0.921s1.55-0.307,2.055-0.921c0.504-0.614,0.756-1.454,0.756-2.519v-7.337
				h3.067v7.433c0,1.926-0.551,3.404-1.651,4.437c-1.101,1.033-2.51,1.55-4.226,1.55c-1.717,0-3.128-0.52-4.235-1.559
				c-1.107-1.04-1.661-2.516-1.661-4.43v-7.431h3.065v7.337C114.701,37.565,114.957,38.405,115.468,39.02z"/>
			<path d="M146.888,39.832c1.506,0,2.738-0.576,3.693-1.729l1.966,1.957c-1.56,1.698-3.397,2.547-5.513,2.547
				s-3.857-0.646-5.227-1.938s-2.053-2.923-2.053-4.893s0.697-3.612,2.093-4.931c1.396-1.317,3.101-1.976,5.118-1.976
				c2.253,0,4.14,0.829,5.659,2.488l-1.905,2.091c-0.971-1.166-2.175-1.748-3.615-1.748c-1.154,0-2.139,0.363-2.958,1.093
				c-0.818,0.729-1.228,1.71-1.228,2.945c0,1.234,0.387,2.227,1.159,2.973C144.851,39.458,145.787,39.832,146.888,39.832z"/>
			<path d="M160.386,31.738v10.715h-3.065V31.738h-3.89v-2.566h10.846v2.566H160.386z"/>
			<path d="M248.764,31.738v10.715h-3.066V31.738h-3.891v-2.566h10.847v2.566H248.764z"/>
			<path d="M166.794,29.173h3.065v13.281h-3.065V29.173z"/>
			<path d="M224.742,29.173h3.065v13.281h-3.065V29.173z"/>
			<path d="M184.398,40.621c-1.389,1.312-3.098,1.966-5.128,1.966c-2.031,0-3.74-0.654-5.128-1.966
				c-1.39-1.312-2.084-2.941-2.084-4.894c0-1.95,0.694-3.581,2.084-4.893c1.388-1.311,3.098-1.966,5.128-1.966
				s3.739,0.655,5.128,1.966c1.389,1.312,2.082,2.942,2.082,4.893C186.48,37.68,185.787,39.31,184.398,40.621z M183.356,35.737
				c0-1.184-0.393-2.194-1.18-3.03c-0.786-0.837-1.752-1.254-2.897-1.254c-1.146,0-2.113,0.417-2.898,1.254
				c-0.787,0.836-1.18,1.847-1.18,3.03c0,1.185,0.393,2.191,1.18,3.021c0.785,0.829,1.752,1.244,2.898,1.244
				c1.146,0,2.111-0.415,2.897-1.244C182.965,37.93,183.356,36.923,183.356,35.737z"/>
			<path d="M197.787,29.173h3.066v13.281h-3.066l-6.542-8.322v8.322h-3.066V29.173h2.87l6.738,8.551V29.173z"/>
			<path d="M135.15,29.173h3.064v13.281h-3.064l-6.543-8.322v8.322h-3.064V29.173h2.868l6.739,8.551V29.173L135.15,29.173z"/>
			<polygon points="206.922,29.488 205.304,33.114 207.016,36.983 203.581,36.979 202.419,39.585 208.176,39.585 209.453,42.454 
				212.715,42.454 			"/>
			<path d="M213.92,42.454V29.173h3.066v10.641h5.854v2.641H213.92z"/>
			<path d="M239.968,35.88c-0.721-0.621-1.733-1.086-3.036-1.396s-2.135-0.58-2.495-0.808c-0.36-0.229-0.541-0.536-0.541-0.923
				c0-0.386,0.147-0.695,0.442-0.93c0.295-0.235,0.697-0.353,1.208-0.353c1.267,0,2.493,0.436,3.683,1.304l1.145-2.472
				c-0.584-0.407-1.242-0.735-1.979-0.979c-0.917-0.303-1.834-0.455-2.751-0.455c-1.401,0-2.57,0.341-3.508,1.025
				c-0.937,0.684-1.404,1.656-1.404,2.916c0,1.261,0.37,2.186,1.11,2.774c0.74,0.59,1.908,1.068,3.508,1.435
				c1.008,0.24,1.683,0.479,2.023,0.712c0.341,0.235,0.511,0.552,0.511,0.95c0,0.4-0.16,0.716-0.48,0.949
				c-0.321,0.236-0.765,0.352-1.327,0.352c-1.258,0-2.626-0.625-4.106-1.88l-0.095,0.112l-1.168,2.523
				c1.598,1.243,3.367,1.867,5.311,1.867c1.507,0,2.722-0.37,3.645-1.111c0.924-0.741,1.385-1.707,1.385-2.898
				C241.048,37.406,240.687,36.501,239.968,35.88z"/>
			<path d="M263.111,35.88c-0.721-0.621-1.732-1.086-3.036-1.396s-2.136-0.58-2.495-0.808c-0.36-0.229-0.541-0.536-0.541-0.923
				c0-0.386,0.147-0.695,0.441-0.93c0.295-0.235,0.698-0.353,1.209-0.353c1.266,0,2.494,0.436,3.682,1.304l1.146-2.472
				c-0.584-0.407-1.242-0.735-1.979-0.979c-0.916-0.303-1.834-0.455-2.75-0.455c-1.401,0-2.57,0.341-3.508,1.025
				c-0.937,0.684-1.404,1.656-1.404,2.916c0,1.261,0.37,2.186,1.11,2.774c0.739,0.59,1.908,1.068,3.508,1.435
				c1.008,0.24,1.682,0.479,2.022,0.712c0.342,0.235,0.512,0.552,0.512,0.95c0,0.4-0.16,0.716-0.48,0.949
				c-0.322,0.236-0.765,0.352-1.327,0.352c-1.258,0-2.626-0.625-4.106-1.88l-0.095,0.112l-1.169,2.523
				c1.598,1.243,3.368,1.867,5.311,1.867c1.507,0,2.722-0.37,3.646-1.111c0.923-0.741,1.386-1.707,1.386-2.898
				C264.191,37.406,263.831,36.501,263.111,35.88z"/>
		</g>
		<g>
			<path d="M104.821,19.456v6.352h-1.817v-6.352h-2.305v-1.519h6.428v1.519H104.821z"/>
			<path d="M114.638,17.936h1.816v7.872h-1.816v-3.097H111.4v3.097h-1.816v-7.872h1.816v3.288h3.238V17.936z"/>
			<path d="M125.275,17.936v1.565h-4.053v1.622h3.645v1.498h-3.645v1.632h4.181v1.555h-5.997v-7.872H125.275z"/>
		</g>
	</g>
</g>
</svg>
