<?xml version="1.0" encoding="utf-8"?>
<!-- Generator: Adobe Illustrator 16.0.4, SVG Export Plug-In . SVG Version: 6.00 Build 0)  -->
<!DOCTYPE svg PUBLIC "-//W3C//DTD SVG 1.1//EN" "http://www.w3.org/Graphics/SVG/1.1/DTD/svg11.dtd">
<svg version="1.1" id="Layer_1" xmlns="http://www.w3.org/2000/svg" xmlns:xlink="http://www.w3.org/1999/xlink" x="0px" y="0px"
	 width="211px" height="60px" viewBox="0 0 211 60" enable-background="new 0 0 211 60" xml:space="preserve">
<rect fill="none" width="211" height="60"/>
<g>
	<g>
		<path fill="#FFFFFF" d="M30,0C13.432,0,0,13.432,0,30c0,16.568,13.432,30,30,30c16.568,0,30-13.432,30-30C60,13.432,46.568,0,30,0
			z M20.854,26.569l-10.588,2.879v-8.586l10.588-2.878V26.569z M44.799,20.04l-13.722,3.731v6.274l13.722-3.73V34.9l-13.722,3.729
			v10.13l-8.284,2.255V40.883v-8.586v-6.274v-8.105v-0.48l22.006-5.982V20.04L44.799,20.04z"/>
	</g>
</g>
</svg>
